<svg xmlns="http://www.w3.org/2000/svg" width="900" height="520">
<rect width="100%" height="100%" fill="white"/>
<text x="450.0" y="32" text-anchor="middle" font-family="Arial" font-size="22">Path length [cells]: mean ± standard deviation</text>
<line x1="90" y1="405" x2="860" y2="405" stroke="black"/>
<line x1="90" y1="60" x2="90" y2="405" stroke="black"/>
<line x1="90" y1="405.0" x2="860" y2="405.0" stroke="#dddddd"/>
<text x="80" y="409.0" text-anchor="end" font-family="Arial" font-size="12">0</text>
<line x1="90" y1="336.0" x2="860" y2="336.0" stroke="#dddddd"/>
<text x="80" y="340.0" text-anchor="end" font-family="Arial" font-size="12">100</text>
<line x1="90" y1="267.0" x2="860" y2="267.0" stroke="#dddddd"/>
<text x="80" y="271.0" text-anchor="end" font-family="Arial" font-size="12">200</text>
<line x1="90" y1="198.0" x2="860" y2="198.0" stroke="#dddddd"/>
<text x="80" y="202.0" text-anchor="end" font-family="Arial" font-size="12">300</text>
<line x1="90" y1="129.0" x2="860" y2="129.0" stroke="#dddddd"/>
<text x="80" y="133.0" text-anchor="end" font-family="Arial" font-size="12">400</text>
<line x1="90" y1="60.0" x2="860" y2="60.0" stroke="#dddddd"/>
<text x="80" y="64.0" text-anchor="end" font-family="Arial" font-size="12">500</text>
<rect x="160.6" y="316.7" width="115.5" height="88.3" fill="#4c78a8"/>
<line x1="218.3" y1="282.8" x2="218.3" y2="350.7" stroke="black" stroke-width="2"/>
<line x1="206.3" y1="282.8" x2="230.3" y2="282.8" stroke="black" stroke-width="2"/>
<line x1="206.3" y1="350.7" x2="230.3" y2="350.7" stroke="black" stroke-width="2"/>
<text x="218.3" y="308.7" text-anchor="middle" font-family="Arial" font-size="13">127.91</text>
<text x="218.3" y="450" text-anchor="middle" font-family="Arial" font-size="14">Classic A*</text>
<rect x="417.2" y="310.3" width="115.5" height="94.7" fill="#f58518"/>
<line x1="475.0" y1="266.9" x2="475.0" y2="353.7" stroke="black" stroke-width="2"/>
<line x1="463.0" y1="266.9" x2="487.0" y2="266.9" stroke="black" stroke-width="2"/>
<line x1="463.0" y1="353.7" x2="487.0" y2="353.7" stroke="black" stroke-width="2"/>
<text x="475.0" y="302.3" text-anchor="middle" font-family="Arial" font-size="13">137.31</text>
<text x="475.0" y="450" text-anchor="middle" font-family="Arial" font-size="14">Full MLP A*</text>
<rect x="673.9" y="293.5" width="115.5" height="111.5" fill="#54a24b"/>
<line x1="731.7" y1="246.1" x2="731.7" y2="340.9" stroke="black" stroke-width="2"/>
<line x1="719.7" y1="246.1" x2="743.7" y2="246.1" stroke="black" stroke-width="2"/>
<line x1="719.7" y1="340.9" x2="743.7" y2="340.9" stroke="black" stroke-width="2"/>
<text x="731.7" y="285.5" text-anchor="middle" font-family="Arial" font-size="13">161.57</text>
<text x="731.7" y="450" text-anchor="middle" font-family="Arial" font-size="14">A* + MLP refine</text>
<text x="24" y="260.0" transform="rotate(-90 24,260.0)" text-anchor="middle" font-family="Arial" font-size="16">Path length [cells]</text>
</svg>